
<svg width="31" height="30" viewBox="0 0 31 30" fill="none" xmlns="http://www.w3.org/2000/svg">
<path d="M15.1409 7.19727C10.907 7.19727 7.39893 10.6448 7.39893 14.9392C7.39893 19.2336 10.8465 22.6811 15.1409 22.6811C19.4352 22.6811 22.8828 19.1731 22.8828 14.9392C22.8828 10.7053 19.3747 7.19727 15.1409 7.19727ZM15.1409 19.8989C12.4191 19.8989 10.1812 17.661 10.1812 14.9392C10.1812 12.2174 12.4191 9.97952 15.1409 9.97952C17.8626 9.97952 20.1005 12.2174 20.1005 14.9392C20.1005 17.661 17.8626 19.8989 15.1409 19.8989Z" fill="#1F1E23"/>
<path d="M23.1852 8.76978C24.1539 8.76978 24.9392 7.98448 24.9392 7.01575C24.9392 6.04703 24.1539 5.26172 23.1852 5.26172C22.2165 5.26172 21.4312 6.04703 21.4312 7.01575C21.4312 7.98448 22.2165 8.76978 23.1852 8.76978Z" fill="#1F1E23"/>
<path d="M27.7215 2.47984C26.1489 0.846774 23.911 0 21.3707 0H8.91103C3.64893 0 0.140869 3.50806 0.140869 8.77016V21.1694C0.140869 23.7702 0.987643 26.0081 2.68119 27.6411C4.31426 29.2137 6.49168 30 8.97151 30H21.3102C23.911 30 26.0885 29.1532 27.661 27.6411C29.2941 26.0686 30.1409 23.8306 30.1409 21.2298V8.77016C30.1409 6.22984 29.2941 4.05242 27.7215 2.47984ZM27.4796 21.2298C27.4796 23.1048 26.8143 24.6169 25.7255 25.6452C24.6368 26.6734 23.1247 27.2177 21.3102 27.2177H8.97151C7.157 27.2177 5.6449 26.6734 4.55619 25.6452C3.46748 24.5565 2.92313 23.0444 2.92313 21.1694V8.77016C2.92313 6.95564 3.46748 5.44355 4.55619 4.35484C5.58442 3.32661 7.157 2.78226 8.97151 2.78226H21.4312C23.2457 2.78226 24.7578 3.32661 25.8465 4.41532C26.8747 5.50403 27.4796 7.01613 27.4796 8.77016V21.2298Z" fill="#1F1E23"/>
</svg>
