
<svg width="30" height="30" viewBox="0 0 30 30" fill="none" xmlns="http://www.w3.org/2000/svg">
<path d="M15 0C6.71572 0 0 6.71572 0 15C0 23.2843 6.71572 30 15 30C23.2843 30 30 23.2843 30 15C30 6.71572 23.2843 0 15 0ZM22.5949 13.6161C21.0021 13.6161 19.4523 13.0992 18.259 12.2245L18.2495 18.1718C18.2485 19.2738 17.9115 20.3493 17.2833 21.2548C16.6552 22.1602 15.7659 22.8526 14.734 23.2395C13.7022 23.6264 12.5769 23.6894 11.5083 23.4201C10.4397 23.1508 9.47864 22.562 8.75337 21.7324C8.02809 20.9027 7.5731 19.8715 7.4491 18.7765C7.32509 17.6815 7.53799 16.5747 8.05936 15.6039C8.58073 14.633 9.38579 13.8442 10.3671 13.3428C11.3484 12.8414 12.4593 12.6512 13.5516 12.7975V15.7181C13.0363 15.5659 12.4863 15.5798 11.9794 15.7578C11.4724 15.9358 11.0345 16.2688 10.7275 16.7097C10.4205 17.1506 10.2602 17.677 10.2691 18.2142C10.2781 18.7513 10.456 19.272 10.7776 19.7024C11.0992 20.1328 11.5481 20.451 12.0607 20.6119C12.5732 20.7728 13.1235 20.7683 13.6333 20.5989C14.1432 20.4295 14.5867 20.1039 14.9011 19.6683C15.2155 19.2326 15.3847 18.709 15.3848 18.1718V6.40623H18.3892C18.3892 6.9585 18.498 7.50537 18.7094 8.0156C18.9207 8.52583 19.2305 8.98944 19.621 9.37995C20.0115 9.77047 20.4751 10.0802 20.9854 10.2916C21.4956 10.5029 22.0425 10.6117 22.5947 10.6117L22.5949 13.6161Z" fill="#1F1E23"/>
</svg>
