
<svg width="38" height="27" viewBox="0 0 38 27" fill="none" xmlns="http://www.w3.org/2000/svg">
<path d="M36.3649 4.07696C35.9379 2.47211 34.6794 1.20841 33.0814 0.779478C30.1847 -2.08421e-07 18.5704 0 18.5704 0C18.5704 0 6.95615 -2.08421e-07 4.05945 0.779478C2.46167 1.20841 1.20302 2.47211 0.775969 4.07696C0 6.98566 0 13.0547 0 13.0547C0 13.0547 0 19.1235 0.775969 22.0319C1.20302 23.6368 2.46167 24.9008 4.05945 25.3297C6.95615 26.1089 18.5704 26.1089 18.5704 26.1089C18.5704 26.1089 30.1847 26.1089 33.0814 25.3297C34.6794 24.9008 35.9379 23.6368 36.3649 22.0319C37.1408 19.1235 37.1408 13.0547 37.1408 13.0547C37.1408 13.0547 37.1408 6.98566 36.3649 4.07696ZM14.8561 18.6495V7.45975L24.5054 13.0547L14.8561 18.6495Z" fill="#1F1E23"/>
</svg>
